<?xml version="1.0" encoding="UTF-8" standalone="no"?>
<!-- Created with Inkscape (http://www.inkscape.org/) -->

<svg
   xmlns:dc="http://purl.org/dc/elements/1.1/"
   xmlns:cc="http://creativecommons.org/ns#"
   xmlns:rdf="http://www.w3.org/1999/02/22-rdf-syntax-ns#"
   xmlns:svg="http://www.w3.org/2000/svg"
   xmlns="http://www.w3.org/2000/svg"
   xmlns:sodipodi="http://sodipodi.sourceforge.net/DTD/sodipodi-0.dtd"
   xmlns:inkscape="http://www.inkscape.org/namespaces/inkscape"
   width="60.843792"
   height="61.283642"
   id="svg2"
   version="1.1"
   inkscape:version="0.48.4 r9939"
   sodipodi:docname="New document 1">
  <defs
     id="defs4">
    <inkscape:path-effect
       effect="skeletal"
       id="path-effect3828"
       is_visible="true"
       pattern="m 0.51590845,4.2640499 c 0,-2.76 2.24000005,-4.99999997 5.00000005,-4.99999997 2.76,0 4.9999995,2.23999997 4.9999995,4.99999997 0,2.76 -2.2399995,5 -4.9999995,5 -2.76,0 -5.00000005,-2.24 -5.00000005,-5 z"
       copytype="single_stretched"
       prop_scale="1"
       scale_y_rel="false"
       spacing="0"
       normal_offset="0"
       tang_offset="0"
       prop_units="false"
       vertical_pattern="false"
       fuse_tolerance="0" />
    <inkscape:path-effect
       effect="skeletal"
       id="path-effect2987"
       is_visible="true"
       pattern="m 9.7908712,4.2423856 c 0,-2.76 2.2399998,-5.00000001 4.9999998,-5.00000001 2.76,0 5,2.24000001 5,5.00000001 0,2.76 -2.24,5 -5,5 -2.76,0 -4.9999998,-2.24 -4.9999998,-5 z"
       copytype="single_stretched"
       prop_scale="1"
       scale_y_rel="false"
       spacing="0"
       normal_offset="0"
       tang_offset="0"
       prop_units="false"
       vertical_pattern="false"
       fuse_tolerance="0" />
    <inkscape:path-effect
       effect="skeletal"
       id="path-effect2987-3"
       is_visible="true"
       pattern="m 215.65469,3.8473203 c 0,-2.76 2.24,-4.9999999 5,-4.9999999 2.76,0 5,2.2399999 5,4.9999999 0,2.76 -2.24,5.0000002 -5,5.0000002 -2.76,0 -5,-2.2400002 -5,-5.0000002 z"
       copytype="single_stretched"
       prop_scale="1"
       scale_y_rel="false"
       spacing="0"
       normal_offset="0"
       tang_offset="0"
       prop_units="false"
       vertical_pattern="false"
       fuse_tolerance="0" />
    <inkscape:path-effect
       effect="skeletal"
       id="path-effect2987-3-7"
       is_visible="true"
       pattern="m 215.52316,225.65995 c 0,-2.76 2.24,-5 5,-5 2.76,0 5,2.24 5,5 0,2.76 -2.24,5 -5,5 -2.76,0 -5,-2.24 -5,-5 z"
       copytype="single_stretched"
       prop_scale="1"
       scale_y_rel="false"
       spacing="0"
       normal_offset="0"
       tang_offset="0"
       prop_units="false"
       vertical_pattern="false"
       fuse_tolerance="0" />
    <inkscape:path-effect
       effect="skeletal"
       id="path-effect2987-3-7-3"
       is_visible="true"
       pattern="m 9.7124177,226.26701 c 0,-2.76 2.2400003,-5 5.0000003,-5 2.76,0 5,2.24 5,5 0,2.76 -2.24,5 -5,5 -2.76,0 -5.0000003,-2.24 -5.0000003,-5 z"
       copytype="single_stretched"
       prop_scale="1"
       scale_y_rel="false"
       spacing="0"
       normal_offset="0"
       tang_offset="0"
       prop_units="false"
       vertical_pattern="false"
       fuse_tolerance="0" />
    <inkscape:path-effect
       effect="skeletal"
       id="path-effect3828-6"
       is_visible="true"
       pattern="m 335.77856,3.7320572 c 0,-2.76000001 2.24,-5 5,-5 2.76,0 5,2.23999999 5,5 0,2.7599998 -2.24,4.9999998 -5,4.9999998 -2.76,0 -5,-2.24 -5,-4.9999998 z"
       copytype="single_stretched"
       prop_scale="1"
       scale_y_rel="false"
       spacing="0"
       normal_offset="0"
       tang_offset="0"
       prop_units="false"
       vertical_pattern="false"
       fuse_tolerance="0" />
    <inkscape:path-effect
       effect="skeletal"
       id="path-effect3828-9"
       is_visible="true"
       pattern="m 168.39064,-180.76346 c 0,-2.76 2.24,-5 5,-5 2.76,0 5,2.24 5,5 0,2.76 -2.24,5 -5,5 -2.76,0 -5,-2.24 -5,-5 z"
       copytype="single_stretched"
       prop_scale="1"
       scale_y_rel="false"
       spacing="0"
       normal_offset="0"
       tang_offset="0"
       prop_units="false"
       vertical_pattern="false"
       fuse_tolerance="0" />
    <inkscape:path-effect
       effect="skeletal"
       id="path-effect3828-9-2"
       is_visible="true"
       pattern="m 168.1865,189.01828 c 0,-2.76 2.24,-5 5,-5 2.76,0 5,2.24 5,5 0,2.76 -2.24,5 -5,5 -2.76,0 -5,-2.24 -5,-5 z"
       copytype="single_stretched"
       prop_scale="1"
       scale_y_rel="false"
       spacing="0"
       normal_offset="0"
       tang_offset="0"
       prop_units="false"
       vertical_pattern="false"
       fuse_tolerance="0" />
  </defs>
  <sodipodi:namedview
     id="base"
     pagecolor="#ffffff"
     bordercolor="#666666"
     borderopacity="1.0"
     inkscape:pageopacity="0.0"
     inkscape:pageshadow="2"
     inkscape:zoom="1.979899"
     inkscape:cx="78.637192"
     inkscape:cy="32.086915"
     inkscape:document-units="px"
     inkscape:current-layer="layer1"
     showgrid="false"
     fit-margin-top="0"
     fit-margin-left="0"
     fit-margin-right="0"
     fit-margin-bottom="0"
     inkscape:window-width="1600"
     inkscape:window-height="848"
     inkscape:window-x="0"
     inkscape:window-y="24"
     inkscape:window-maximized="0" />
  <metadata
     id="metadata7">
    <rdf:RDF>
      <cc:Work
         rdf:about="">
        <dc:format>image/svg+xml</dc:format>
        <dc:type
           rdf:resource="http://purl.org/dc/dcmitype/StillImage" />
        <dc:title></dc:title>
      </cc:Work>
    </rdf:RDF>
  </metadata>
  <g
     inkscape:label="Layer 1"
     inkscape:groupmode="layer"
     id="layer1"
     transform="translate(-152.59373,-271.21638)">
    <g
       id="g3907"
       transform="matrix(0.18488556,0,0,0.16869546,123.147,224.37065)"
       style="fill:#000000;fill-opacity:1;stroke:#000000;stroke-opacity:1">
      <path
         inkscape:connector-curvature="0"
         inkscape:original-d="m 284.07658,274.46172 -2.85714,145.71428 -125.71428,0"
         inkscape:path-effect="#path-effect2987"
         id="path2985"
         d="m 284.07658,274.46172 c 0.68987,0.0135 1.26927,3.82948 1.66483,10.77756 0.39555,6.94809 0.60672,17.02883 0.60767,29.52532 9.4e-4,12.4965 -0.20834,27.40874 -0.60212,43.96925 -0.39378,16.56051 -0.97152,34.76877 -1.65994,53.81067 -0.12379,3.42393 -0.24894,6.81671 -0.37477,10.17365 0,0 -10e-6,0 -10e-6,0 -17.93487,0.3174 -34.97528,0.54084 -50.40597,0.6155 -15.43069,0.0747 -29.25122,1.4e-4 -40.79321,-0.23241 -11.54199,-0.23255 -20.80548,-0.62308 -27.17183,-1.13164 -6.36635,-0.50856 -9.83607,-1.13464 -9.83607,-1.79362 0,-0.65898 3.46307,-1.28506 9.69128,-1.79362 6.22822,-0.50856 15.22106,-0.89909 26.32614,-1.13164 11.10509,-0.23255 24.32237,-0.30708 39.04923,-0.23241 14.72685,0.0747 30.96371,0.2981 48.15481,0.6155 0,0 10e-6,0 10e-6,0 0.004,-3.25509 0.01,-6.53986 0.0179,-9.85051 0.046,-18.41191 0.16802,-35.89334 0.41085,-51.79957 0.24282,-15.90624 0.60695,-30.23782 1.0895,-42.30343 0.48255,-12.0656 1.08354,-21.86523 1.7485,-28.65699 0.66496,-6.79177 1.39337,-10.57514 2.08324,-10.56161 z"
         style="fill:#000000;fill-opacity:1;fill-rule:evenodd;stroke:#000000;stroke-opacity:1" />
      <path
         inkscape:connector-curvature="0"
         inkscape:original-d="m 363.64149,274.06666 2.8572,145.71428 125.7142,0"
         inkscape:path-effect="#path-effect2987-3"
         id="path2985-6"
         d="m 363.64149,274.06666 c 0.68987,-0.0135 1.41828,3.76984 2.08324,10.5616 0.66497,6.79177 1.26596,16.59139 1.74852,28.65699 0.48256,12.0656 0.84669,26.39718 1.08952,42.30341 0.24283,15.90624 0.36489,33.38766 0.41086,51.79956 0.008,3.31066 0.014,6.59545 0.0179,9.85055 0,0 1e-5,0 1e-5,0 17.19109,-0.31741 33.42793,-0.54084 48.15478,-0.61551 14.72685,-0.0747 27.94412,-1.3e-4 39.0492,0.23242 11.10508,0.23255 20.09791,0.62308 26.32612,1.13164 6.22821,0.50856 9.69128,1.13464 9.69128,1.79362 0,0.65898 -3.46972,1.28506 -9.83606,1.79362 -6.36635,0.50856 -15.62983,0.89909 -27.17181,1.13164 -11.54198,0.23255 -25.36251,0.30708 -40.79319,0.23242 -15.43068,-0.0747 -32.47108,-0.2981 -50.40594,-0.61551 0,0 -1e-5,0 -1e-5,0 -0.12583,-3.35695 -0.25098,-6.74974 -0.37477,-10.17369 -0.68844,-19.04189 -1.26618,-37.25014 -1.65997,-53.81065 -0.39378,-16.56051 -0.60307,-31.47275 -0.60213,-43.96924 9.4e-4,-12.49649 0.21211,-22.57723 0.60766,-29.52531 0.39555,-6.94808 0.97495,-10.76403 1.66482,-10.77756 z"
         style="fill:#000000;fill-opacity:1;fill-rule:evenodd;stroke:#000000;stroke-opacity:1" />
      <path
         inkscape:connector-curvature="0"
         inkscape:original-d="m 363.50996,644.7791 2.8572,-145.71429 125.7142,0"
         inkscape:path-effect="#path-effect2987-3-7"
         id="path2985-6-5"
         d="m 363.50996,644.7791 c -0.68987,-0.0135 -1.26927,-3.82948 -1.66482,-10.77756 -0.39555,-6.94808 -0.60672,-17.02882 -0.60766,-29.52531 -9.4e-4,-12.4965 0.20835,-27.40874 0.60213,-43.96924 0.39379,-16.56051 0.97153,-34.76876 1.65997,-53.81066 0.12379,-3.42394 0.24894,-6.81673 0.37477,-10.17369 0,0 1e-5,0 1e-5,0 17.93486,-0.31741 34.97526,-0.54084 50.40594,-0.61551 15.43068,-0.0747 29.25121,-1.3e-4 40.79319,0.23242 11.54198,0.23255 20.80546,0.62308 27.17181,1.13164 6.36634,0.50856 9.83606,1.13464 9.83606,1.79362 0,0.65898 -3.46307,1.28506 -9.69128,1.79362 -6.22821,0.50856 -15.22104,0.89909 -26.32612,1.13164 -11.10508,0.23255 -24.32235,0.30708 -39.0492,0.23242 -14.72685,-0.0747 -30.96369,-0.2981 -48.15478,-0.61551 0,0 -1e-5,0 -1e-5,0 -0.004,3.2551 -0.01,6.53989 -0.0179,9.85056 -0.046,18.4119 -0.16803,35.89332 -0.41086,51.79955 -0.24283,15.90624 -0.60696,30.23781 -1.08952,42.30342 -0.48256,12.0656 -1.08355,21.86522 -1.74852,28.65699 -0.66496,6.79176 -1.39337,10.57513 -2.08324,10.5616 z"
         style="fill:#000000;fill-opacity:1;fill-rule:evenodd;stroke:#000000;stroke-opacity:1" />
      <path
         inkscape:connector-curvature="0"
         inkscape:original-d="m 283.99814,645.38616 -2.8572,-145.71429 -125.71419,0"
         inkscape:path-effect="#path-effect2987-3-7-3"
         id="path2985-6-5-5"
         d="m 283.99814,645.38616 c -0.68987,0.0135 -1.41828,-3.76984 -2.08324,-10.5616 -0.66497,-6.79177 -1.26596,-16.59139 -1.74852,-28.657 -0.48256,-12.0656 -0.84669,-26.39717 -1.08952,-42.30341 -0.24283,-15.90623 -0.36489,-33.38765 -0.41086,-51.79955 -0.008,-3.31067 -0.014,-6.59546 -0.0179,-9.85056 0,0 -10e-6,0 -10e-6,0 -17.19109,0.31741 -33.42793,0.54084 -48.15478,0.61551 -14.72684,0.0747 -27.94412,1.3e-4 -39.04919,-0.23242 -11.10508,-0.23255 -20.09792,-0.62308 -26.32612,-1.13164 -6.22821,-0.50856 -9.69128,-1.13464 -9.69128,-1.79362 0,-0.65898 3.46972,-1.28506 9.83606,-1.79362 6.36635,-0.50856 15.62983,-0.89909 27.17181,-1.13164 11.54198,-0.23255 25.36251,-0.30708 40.79319,-0.23242 15.43067,0.0747 32.47108,0.2981 50.40593,0.61551 0,0 1e-5,0 1e-5,0 0.12583,3.35696 0.25099,6.74975 0.37477,10.17369 0.68844,19.0419 1.26618,37.25015 1.65997,53.81065 0.39378,16.56051 0.60307,31.47275 0.60213,43.96924 -9.4e-4,12.49649 -0.21211,22.57724 -0.60766,29.52532 -0.39555,6.94808 -0.97495,10.76403 -1.66482,10.77756 z"
         style="fill:#000000;fill-opacity:1;fill-rule:evenodd;stroke:#000000;stroke-opacity:1" />
      <path
         inkscape:connector-curvature="0"
         inkscape:original-d="m 156.0794,419.77581 0,80.30713"
         inkscape:path-effect="#path-effect3828"
         id="path3826"
         d="m 156.0794,419.77581 c 2.76,0 5,17.9888 5,40.15357 0,22.16477 -2.24,40.15356 -5,40.15356 -2.76,0 -5,-17.98879 -5,-40.15356 0,-22.16477 2.24,-40.15357 5,-40.15357 z"
         style="fill:#000000;fill-opacity:1;fill-rule:evenodd;stroke:#000000;stroke-opacity:1" />
      <path
         inkscape:connector-curvature="0"
         inkscape:original-d="m 491.34205,419.24382 0,80.30713"
         inkscape:path-effect="#path-effect3828-6"
         id="path3826-2"
         d="m 491.34205,419.24382 c 2.76,0 5,17.9888 5,40.15357 0,22.16476 -2.24,40.15356 -5,40.15356 -2.76,0 -5,-17.9888 -5,-40.15356 0,-22.16477 2.24,-40.15357 5,-40.15357 z"
         style="fill:#000000;fill-opacity:1;fill-rule:evenodd;stroke:#000000;stroke-opacity:1" />
      <path
         inkscape:connector-curvature="0"
         inkscape:original-d="m 364.1077,274.90187 -80.30713,0"
         inkscape:path-effect="#path-effect3828-9"
         id="path3826-1"
         d="m 364.1077,274.90187 c 0,2.76 -17.9888,5 -40.15357,5 -22.16476,0 -40.15356,-2.24 -40.15356,-5 0,-2.76 17.9888,-5 40.15356,-5 22.16477,0 40.15357,2.24 40.15357,5 z"
         style="fill:#000000;fill-opacity:1;fill-rule:evenodd;stroke:#000000;stroke-opacity:1" />
      <path
         inkscape:connector-curvature="0"
         inkscape:original-d="m 363.90356,644.68361 -80.30713,0"
         inkscape:path-effect="#path-effect3828-9-2"
         id="path3826-1-7"
         d="m 363.90356,644.68361 c 0,2.76 -17.9888,5 -40.15356,5 -22.16477,0 -40.15357,-2.24 -40.15357,-5 0,-2.76 17.9888,-5 40.15357,-5 22.16476,0 40.15356,2.24 40.15356,5 z"
         style="fill:#000000;fill-opacity:1;fill-rule:evenodd;stroke:#000000;stroke-opacity:1" />
    </g>
    <path
       style="fill:#008080;fill-opacity:1;stroke:#000000;stroke-width:0.9285714;stroke-linecap:round;stroke-linejoin:round;stroke-miterlimit:4;stroke-opacity:1;stroke-dasharray:none;stroke-dashoffset:0"
       d="m 176.53386,323.21694 c 0,-4.85588 -0.2044,-10.32017 -0.45423,-12.14285 l -0.45423,-3.31398 -11.2695,0 -11.2695,0 -0.0174,-5.89286 -0.0174,-5.89286 11.28237,0.21172 11.28237,0.21173 0.45878,-3.34713 c 0.25233,-1.84093 0.45877,-7.40049 0.45877,-12.35458 l 0,-9.00745 6.42858,0 6.42857,0 0.004,6.42857 c 0.002,3.53571 0.21282,9.10771 0.4677,12.3822 l 0.46342,5.95364 11.31867,-0.23935 11.31867,-0.23935 -6.6e-4,5.89286 -6.5e-4,5.89286 -11.32529,0 -11.32528,0 -0.45535,4.82142 c -0.25045,2.65179 -0.45764,8.11608 -0.46043,12.14286 l -0.005,7.32143 -6.42857,0 -6.42858,0 0,-8.82888 z"
       id="path3938"
       inkscape:connector-curvature="0" />
    <path
       style="fill:none;stroke:#004361;stroke-width:0.6565991;stroke-linecap:round;stroke-linejoin:round;stroke-miterlimit:4;stroke-opacity:1;stroke-dasharray:none;stroke-dashoffset:0"
       d="M 24.69156,51.14229 C 24.518806,46.211483 24.210269,40.813481 24.005924,39.146729 L 23.634386,36.116271 12.396439,35.980339 1.1584919,35.844407 1.1581141,30.677038 1.1577364,25.50967 l 11.2383246,0 11.238325,0 0.376842,-3.282996 c 0.207264,-1.805648 0.515801,-7.317293 0.685637,-12.2480999 l 0.308794,-8.9651038 5.429439,0 5.429439,0 0.33657,8.9651038 C 36.38622,14.909381 36.67649,20.489707 36.84615,22.379298 l 0.308473,3.43562 11.296869,-0.152625 11.296868,-0.152623 -5.1e-4,5.177031 -5.1e-4,5.177032 -11.299147,0 -11.299147,0 -0.298273,2.399112 c -0.16405,1.319512 -0.453717,6.774336 -0.643705,12.121831 l -0.345432,9.722718 -5.427988,0 -5.427989,0 -0.314099,-8.965104 0,0 z"
       id="path3942"
       inkscape:connector-curvature="0"
       transform="translate(152.59373,271.21638)" />
  </g>
</svg>
