<?xml version="1.0" encoding="UTF-8" standalone="no"?>
<!-- Created with Inkscape (http://www.inkscape.org/) -->

<svg
   xmlns:dc="http://purl.org/dc/elements/1.1/"
   xmlns:cc="http://creativecommons.org/ns#"
   xmlns:rdf="http://www.w3.org/1999/02/22-rdf-syntax-ns#"
   xmlns:svg="http://www.w3.org/2000/svg"
   xmlns="http://www.w3.org/2000/svg"
   xmlns:sodipodi="http://sodipodi.sourceforge.net/DTD/sodipodi-0.dtd"
   xmlns:inkscape="http://www.inkscape.org/namespaces/inkscape"
   width="1052.3622"
   height="744.09448"
   id="svg2"
   version="1.1"
   inkscape:version="0.48.4 r9939"
   sodipodi:docname="[Maquette] Accueil Site.png">
  <defs
     id="defs4">
    <marker
       inkscape:stockid="Arrow1Lend"
       orient="auto"
       refY="0.0"
       refX="0.0"
       id="Arrow1Lend"
       style="overflow:visible;">
      <path
         id="path4009"
         d="M 0.0,0.0 L 5.0,-5.0 L -12.5,0.0 L 5.0,5.0 L 0.0,0.0 z "
         style="fill-rule:evenodd;stroke:#000000;stroke-width:1.0pt;"
         transform="scale(0.8) rotate(180) translate(12.5,0)" />
    </marker>
    <inkscape:path-effect
       fuse_tolerance="0"
       vertical_pattern="false"
       prop_units="false"
       tang_offset="0"
       normal_offset="0"
       spacing="0"
       scale_y_rel="false"
       prop_scale="1"
       copytype="single_stretched"
       pattern="m 87.142857,5 c 0,-2.76 2.24,-5 5,-5 2.76,0 5,2.24 5,5 0,2.76 -2.24,5 -5,5 -2.76,0 -5,-2.24 -5,-5 z"
       is_visible="true"
       id="path-effect3803"
       effect="skeletal" />
    <inkscape:path-effect
       effect="skeletal"
       id="path-effect3799"
       is_visible="true"
       pattern="M 0,5 C 0,2.24 2.24,0 5,0 7.76,0 10,2.24 10,5 10,7.76 7.76,10 5,10 2.24,10 0,7.76 0,5 z"
       copytype="single_stretched"
       prop_scale="1"
       scale_y_rel="false"
       spacing="0"
       normal_offset="0"
       tang_offset="0"
       prop_units="false"
       vertical_pattern="false"
       fuse_tolerance="0" />
  </defs>
  <sodipodi:namedview
     id="base"
     pagecolor="#ffffff"
     bordercolor="#666666"
     borderopacity="1.0"
     inkscape:pageopacity="0.0"
     inkscape:pageshadow="2"
     inkscape:zoom="0.7"
     inkscape:cx="500.97165"
     inkscape:cy="384.7029"
     inkscape:document-units="px"
     inkscape:current-layer="layer1"
     showgrid="false"
     showguides="true"
     inkscape:guide-bbox="true"
     inkscape:window-width="1360"
     inkscape:window-height="744"
     inkscape:window-x="0"
     inkscape:window-y="24"
     inkscape:window-maximized="1" />
  <metadata
     id="metadata7">
    <rdf:RDF>
      <cc:Work
         rdf:about="">
        <dc:format>image/svg+xml</dc:format>
        <dc:type
           rdf:resource="http://purl.org/dc/dcmitype/StillImage" />
        <dc:title></dc:title>
      </cc:Work>
    </rdf:RDF>
  </metadata>
  <g
     inkscape:label="Layer 1"
     inkscape:groupmode="layer"
     id="layer1"
     transform="translate(0,-308.2677)">
    <rect
       style="fill:#ffffff;fill-opacity:1;stroke:#000000;stroke-width:1.86168134;stroke-linecap:round;stroke-linejoin:round;stroke-miterlimit:4;stroke-opacity:1;stroke-dasharray:none"
       id="rect3004"
       width="1055.8525"
       height="187.28119"
       x="-0.069158487"
       y="309.43588" />
    <text
       xml:space="preserve"
       style="font-size:101.06965637px;font-style:normal;font-weight:normal;line-height:125%;letter-spacing:0px;word-spacing:0px;fill:#000000;fill-opacity:1;stroke:none;font-family:Sans"
       x="16.739536"
       y="426.81805"
       id="text3777"
       sodipodi:linespacing="125%"
       transform="scale(0.99579072,1.0042271)"><tspan
         sodipodi:role="line"
         id="tspan3779"
         x="16.739536"
         y="426.81805">AJIR</tspan></text>
    <text
       xml:space="preserve"
       style="font-size:57.58401108px;font-style:normal;font-weight:normal;line-height:125%;letter-spacing:0px;word-spacing:0px;fill:#000000;fill-opacity:1;stroke:none;font-family:Sans"
       x="276.47833"
       y="389.76416"
       id="text3781"
       sodipodi:linespacing="125%"
       transform="scale(0.93547618,1.0689743)"><tspan
         sodipodi:role="line"
         id="tspan3783"
         x="276.47833"
         y="389.76416">LIEN1</tspan></text>
    <text
       xml:space="preserve"
       style="font-size:59.20560837px;font-style:normal;font-weight:normal;line-height:125%;letter-spacing:0px;word-spacing:0px;fill:#000000;fill-opacity:1;stroke:none;font-family:Sans"
       x="467.61041"
       y="380.67514"
       id="text3785"
       sodipodi:linespacing="125%"
       transform="scale(0.91053951,1.09825)"><tspan
         sodipodi:role="line"
         id="tspan3787"
         x="467.61041"
         y="380.67514">LIEN2</tspan></text>
    <text
       xml:space="preserve"
       style="font-size:61.21752167px;font-style:normal;font-weight:normal;line-height:125%;letter-spacing:0px;word-spacing:0px;fill:#000000;fill-opacity:1;stroke:none;font-family:Sans"
       x="620.28864"
       y="394.78314"
       id="text3789"
       sodipodi:linespacing="125%"
       transform="scale(0.9483136,1.0545035)"><tspan
         sodipodi:role="line"
         x="620.28864"
         y="394.78314"
         id="tspan3793">LIEN3</tspan></text>
    <g
       id="g3805"
       transform="matrix(0.40626242,0,0,0.28832647,776.8235,208.97989)">
      <path
         transform="translate(0,308.2677)"
         inkscape:connector-curvature="0"
         inkscape:original-d="m 461.42857,248.3802 -87.14286,104.28571 47.14286,0 0,108.57143 44.28572,0"
         inkscape:path-effect="#path-effect3799"
         id="path3797"
         d="m 461.42857,248.3802 c 0.46689,0.39014 -1.43238,3.56548 -5.35932,8.94455 -3.92694,5.37907 -9.88189,12.96117 -17.49764,22.22629 -7.61575,9.26512 -16.89237,20.21311 -27.43097,32.39171 -10.5386,12.17861 -22.33898,25.58824 -34.97146,39.84253 0,0 -10e-6,10e-6 -10e-6,10e-6 10.5239,-0.3571 21.38522,-0.73348 32.47927,-1.10613 5.14984,-0.17298 10.24331,-0.34147 15.27016,-0.50328 -0.0569,42.89311 -0.35349,81.41446 -0.79897,109.3704 0,0 0,0 0,0 12.99915,-0.30231 23.60912,-0.2442 31.00844,0.0916 7.39931,0.3358 11.58622,0.94753 11.58622,1.59947 0,0.65194 -4.20928,1.26367 -12.07949,1.59947 -7.87021,0.33579 -19.40309,0.3939 -33.89728,0.0916 0,0 0,0 -1e-5,0 -0.44548,-27.06497 -0.74209,-64.99311 -0.79897,-107.77246 -4.91785,-0.16181 -9.89335,-0.3303 -14.91767,-0.50328 -10.82366,-0.37265 -21.39192,-0.74903 -31.61862,-1.10613 0,0 0,-1e-5 1e-5,-1e-5 12.18168,-15.44134 23.68123,-29.91524 34.13457,-42.85813 10.45334,-12.94289 19.86066,-24.35438 27.82709,-33.73678 7.96642,-9.3824 14.49188,-16.73585 19.14979,-21.63047 4.65792,-4.89461 7.44797,-7.33108 7.91486,-6.94094 z"
         style="fill:#000000;fill-rule:evenodd;stroke:none" />
      <path
         style="fill:#000000;fill-rule:evenodd;stroke:none"
         d="m 463.83083,556.6479 c 0.46689,-0.39014 3.25694,2.04633 7.91486,6.94094 4.65791,4.89462 11.18337,12.24807 19.14979,21.63047 7.96643,9.3824 17.37375,20.79389 27.82709,33.73678 10.45334,12.94289 21.95289,27.41679 34.13457,42.85813 1e-5,0 1e-5,10e-6 1e-5,10e-6 -10.2267,0.3571 -20.79496,0.73348 -31.61862,1.10613 -5.02432,0.17298 -9.99982,0.34147 -14.91767,0.50328 -0.0569,42.77935 -0.35349,80.70749 -0.79897,107.77246 -10e-6,0 -10e-6,0 -10e-6,0 -14.49419,0.30231 -26.02707,0.2442 -33.89728,-0.0916 -7.87021,-0.3358 -12.07949,-0.94753 -12.07949,-1.59947 0,-0.65194 4.18691,-1.26367 11.58622,-1.59947 7.39932,-0.33579 18.00929,-0.3939 31.00844,-0.0916 0,0 0,0 0,0 -0.44548,-27.95594 -0.74209,-66.47729 -0.79897,-109.3704 5.02685,0.16181 10.12032,0.3303 15.27016,0.50328 11.09405,0.37265 21.95537,0.74903 32.47927,1.10613 0,0 -10e-6,-10e-6 -10e-6,-10e-6 -12.63248,-14.25429 -24.43286,-27.66392 -34.97146,-39.84253 -10.5386,-12.1786 -19.81522,-23.12659 -27.43097,-32.39171 -7.61575,-9.26512 -13.5707,-16.84722 -17.49764,-22.22629 -3.92694,-5.37907 -5.82621,-8.55441 -5.35932,-8.94455 z"
         id="path3801"
         inkscape:path-effect="#path-effect3803"
         inkscape:original-d="m 463.83083,556.6479 87.14286,104.28571 -47.14286,0 0,108.57143 -44.28572,0"
         inkscape:connector-curvature="0" />
    </g>
    <g
       id="g3815">
      <rect
         y="570.68604"
         x="679.7525"
         height="66.209358"
         width="349.0665"
         id="rect3813"
         style="fill:#ffffff;fill-opacity:1;stroke:#000000;stroke-width:1.50492883;stroke-linecap:round;stroke-linejoin:round;stroke-miterlimit:4;stroke-opacity:1;stroke-dasharray:none" />
      <text
         sodipodi:linespacing="125%"
         id="text3809"
         y="616.64789"
         x="690"
         style="font-size:40px;font-style:normal;font-weight:normal;line-height:125%;letter-spacing:0px;word-spacing:0px;fill:#000000;fill-opacity:1;stroke:none;font-family:Sans"
         xml:space="preserve"><tspan
           y="616.64789"
           x="690"
           id="tspan3811"
           sodipodi:role="line">Espace Membre</tspan></text>
    </g>
    <path
       style="fill:none;stroke:#000000;stroke-width:1px;stroke-linecap:butt;stroke-linejoin:miter;stroke-opacity:1;marker-start:none;marker-end:url(#Arrow1Lend)"
       d="M 872.11134,262.41834 964.28571,91.237339"
       id="path3820"
       inkscape:connector-type="polyline"
       inkscape:connector-curvature="0"
       inkscape:connection-start="#g3815"
       inkscape:connection-start-point="d4"
       transform="translate(0,308.2677)" />
  </g>
</svg>
